<svg width="26" height="27" viewBox="0 0 26 27" fill="none" xmlns="http://www.w3.org/2000/svg">
<path d="M23.5625 13.5061C23.5625 16.2086 22.4497 18.8004 20.4688 20.7113C18.488 22.6223 15.8013 23.6958 13 23.6958C10.1987 23.6958 7.51204 22.6223 5.53118 20.7113C3.55033 18.8004 2.4375 16.2086 2.4375 13.5061C2.4375 10.8036 3.55033 8.21178 5.53118 6.30083C7.51204 4.38988 10.1987 3.31632 13 3.31632C15.8013 3.31632 18.488 4.38988 20.4688 6.30083C22.4497 8.21178 23.5625 10.8036 23.5625 13.5061ZM0 13.5061C0 16.8322 1.36964 20.0221 3.80761 22.3741C6.24558 24.726 9.55219 26.0473 13 26.0473C16.4478 26.0473 19.7544 24.726 22.1924 22.3741C24.6304 20.0221 26 16.8322 26 13.5061C26 10.1799 24.6304 6.99002 22.1924 4.63808C19.7544 2.28615 16.4478 0.964844 13 0.964844C9.55219 0.964844 6.24558 2.28615 3.80761 4.63808C1.36964 6.99002 0 10.1799 0 13.5061ZM11.7812 6.84354V13.5061C11.7812 13.898 11.9844 14.2654 12.3246 14.4859L17.1996 17.6212C17.7582 17.9837 18.5148 17.8367 18.8906 17.2929C19.2664 16.7492 19.1141 16.0241 18.5504 15.6616L14.2188 12.879V6.84354C14.2188 6.19199 13.6754 5.6678 13 5.6678C12.3246 5.6678 11.7812 6.19199 11.7812 6.84354Z" fill="#232011"/>
</svg>
