<svg width="23" height="26" viewBox="0 0 23 26" fill="none" xmlns="http://www.w3.org/2000/svg">
<g clip-path="url(#clip0_43_412)">
<path d="M16.4286 0C15.5199 0 14.7857 0.726172 14.7857 1.625V3.25H8.21429V1.625C8.21429 0.726172 7.48013 0 6.57143 0C5.66272 0 4.92857 0.726172 4.92857 1.625V3.25H2.46429C1.10379 3.25 -7.15256e-07 4.3418 -7.15256e-07 5.6875V8.125H23V5.6875C23 4.3418 21.8962 3.25 20.5357 3.25H18.0714V1.625C18.0714 0.726172 17.3373 0 16.4286 0ZM23 9.75H-7.15256e-07V23.5625C-7.15256e-07 24.9082 1.10379 26 2.46429 26H20.5357C21.8962 26 23 24.9082 23 23.5625V9.75ZM19.7143 13.8125V15.4375C19.7143 15.8844 19.3446 16.25 18.8929 16.25H17.25C16.7982 16.25 16.4286 15.8844 16.4286 15.4375V13.8125C16.4286 13.3656 16.7982 13 17.25 13H18.8929C19.3446 13 19.7143 13.3656 19.7143 13.8125ZM13.1429 13.8125V15.4375C13.1429 15.8844 12.7732 16.25 12.3214 16.25H10.6786C10.2268 16.25 9.85714 15.8844 9.85714 15.4375V13.8125C9.85714 13.3656 10.2268 13 10.6786 13H12.3214C12.7732 13 13.1429 13.3656 13.1429 13.8125ZM5.75 13C6.20179 13 6.57143 13.3656 6.57143 13.8125V15.4375C6.57143 15.8844 6.20179 16.25 5.75 16.25H4.10714C3.65536 16.25 3.28571 15.8844 3.28571 15.4375V13.8125C3.28571 13.3656 3.65536 13 4.10714 13H5.75ZM19.7143 20.3125V21.9375C19.7143 22.3844 19.3446 22.75 18.8929 22.75H17.25C16.7982 22.75 16.4286 22.3844 16.4286 21.9375V20.3125C16.4286 19.8656 16.7982 19.5 17.25 19.5H18.8929C19.3446 19.5 19.7143 19.8656 19.7143 20.3125ZM12.3214 19.5C12.7732 19.5 13.1429 19.8656 13.1429 20.3125V21.9375C13.1429 22.3844 12.7732 22.75 12.3214 22.75H10.6786C10.2268 22.75 9.85714 22.3844 9.85714 21.9375V20.3125C9.85714 19.8656 10.2268 19.5 10.6786 19.5H12.3214ZM6.57143 20.3125V21.9375C6.57143 22.3844 6.20179 22.75 5.75 22.75H4.10714C3.65536 22.75 3.28571 22.3844 3.28571 21.9375V20.3125C3.28571 19.8656 3.65536 19.5 4.10714 19.5H5.75C6.20179 19.5 6.57143 19.8656 6.57143 20.3125Z" fill="#232011"/>
</g>
<defs>
<clipPath id="clip0_43_412">
<rect width="23" height="26" fill="white" transform="matrix(-1 0 0 1 23 0)"/>
</clipPath>
</defs>
</svg>
