<svg width="93" height="64" viewBox="0 0 93 64" fill="none" xmlns="http://www.w3.org/2000/svg">
<path d="M91.7104 38.6475C91.6066 46.5838 91.4006 55.3998 91.2968 63.336C76.6869 61.9817 61.9627 61.78 47.3176 62.736C46.7737 59.273 49.3451 55.9303 52.5343 54.2488C55.7252 52.5673 59.4423 52.1571 63.0363 51.6266C66.6302 51.096 70.3579 50.3451 73.1968 48.1568C75.4109 46.4482 76.8858 44.009 78.9503 42.1342C82.2345 39.1475 87.2611 37.8796 91.7104 38.6475Z" fill="#598AAB"/>
<path d="M91.5079 38.6475C91.3988 46.877 91.2034 55.1066 91.0943 63.3361C91.1612 63.2717 91.2298 63.2056 91.2967 63.1411C76.6815 61.7953 61.9661 61.5936 47.3175 62.5411C47.3843 62.6055 47.453 62.6716 47.5199 62.736C47.0499 59.2561 49.4946 56.1253 52.5201 54.4811C55.9081 52.6403 59.891 52.3131 63.6574 51.73C66.9557 51.2198 70.3842 50.4723 73.0911 48.4806C75.9282 46.394 77.558 43.1547 80.4955 41.1715C83.6987 39.0086 87.8171 38.2102 91.6557 38.8374C91.9109 38.8797 92.02 38.5034 91.7631 38.4611C88.5053 37.9288 85.1085 38.378 82.1376 39.7866C80.5588 40.5358 79.1737 41.5613 77.9804 42.8021C76.6833 44.1514 75.5815 45.6668 74.2404 46.9771C68.3373 52.7453 59.0568 50.3773 52.198 54.2082C49.118 55.9287 46.6311 59.1747 47.1133 62.7377C47.1274 62.836 47.196 62.9411 47.3157 62.9327C61.9643 61.9868 76.6798 62.1868 91.2949 63.5327C91.4058 63.5429 91.4956 63.4344 91.4973 63.3378C91.6064 55.1083 91.8018 46.8787 91.9109 38.6492C91.9162 38.3967 91.5114 38.3967 91.5079 38.6475Z" fill="#598AAB"/>
<path d="M61.7742 47.4772C56.6491 42.1004 48.0285 40.463 40.4675 39.9867C32.9065 39.5104 24.9019 39.4239 18.448 35.5982C15.8924 34.0845 13.7135 32.047 11.2161 30.4452C8.1079 28.4518 4.54739 27.1652 0.891846 26.433C1.80001 38.456 1.96545 50.5317 1.38465 62.5751C15.3996 63.8684 29.529 63.9904 43.5651 62.9395C42.3349 58.2425 45.0418 52.881 49.6354 50.9097C52.8932 49.5112 56.635 49.7452 60.1057 48.9536C60.9136 48.7671 61.8921 48.2721 61.7742 47.4772Z" fill="#FDF0D3"/>
<path d="M61.9168 47.3399C56.51 41.7563 48.032 40.2765 40.4657 39.7918C35.939 39.5019 31.3735 39.3782 26.9189 38.4815C24.7506 38.0442 22.6122 37.4238 20.6075 36.505C18.404 35.4965 16.4891 34.0896 14.5865 32.6369C12.6171 31.1317 10.6194 29.7095 8.35078 28.6433C5.99941 27.5382 3.50019 26.7686 0.942889 26.2448C0.823208 26.2211 0.677126 26.2991 0.685926 26.433C1.58705 38.4594 1.75249 50.53 1.17873 62.5751C1.17345 62.6869 1.27553 62.7598 1.38113 62.77C15.4014 64.0549 29.5202 64.1769 43.5616 63.1344C43.6954 63.1243 43.7886 63.0175 43.757 62.887C42.6728 58.512 44.8816 53.6336 48.9754 51.4419C51.4429 50.1215 54.3382 49.9638 57.0785 49.635C58.4196 49.4739 62.0312 49.4282 61.9749 47.4755C61.9678 47.2246 61.563 47.2246 61.57 47.4755C61.6123 48.9705 58.4425 49.0756 57.383 49.2078C56.1457 49.3621 54.9031 49.4723 53.6711 49.6536C51.2933 50.0045 49.0088 50.6808 47.1415 52.1894C43.9418 54.7744 42.3965 59.068 43.368 62.9887C43.4331 62.9056 43.4982 62.8242 43.5634 62.7412C29.522 63.7836 15.4032 63.6616 1.38289 62.3767C1.44977 62.4412 1.51841 62.5073 1.58529 62.5717C2.15906 50.5266 1.99538 38.456 1.09249 26.4296C1.00625 26.4923 0.921768 26.555 0.835528 26.6177C5.68964 27.6111 9.92951 29.5824 13.8139 32.5369C15.5193 33.8336 17.2036 35.1676 19.1062 36.1931C20.9014 37.161 22.8374 37.8746 24.8192 38.395C33.0174 40.5478 41.6801 39.5205 49.9135 41.5156C54.2766 42.5734 58.5199 44.3989 61.6317 47.6111C61.8094 47.7992 62.0945 47.5229 61.9168 47.3399Z" fill="#364C33"/>
<path d="M24.9089 33.5014C31.3136 32.4776 37.8151 31.8047 42.8259 27.8298C45.2089 25.9381 47.0622 23.5108 49.257 21.4174C54.6954 16.2356 62.0857 13.2895 69.5957 11.8911C77.1057 10.4927 84.8145 10.5266 92.4653 10.5656C92.453 18.6849 92.2559 26.8043 91.8704 34.9151C87.3965 33.6133 82.4913 34.8033 78.3781 36.9407C74.265 39.0765 70.7379 42.0988 66.9909 44.7889C66.5051 45.138 65.9472 45.4991 65.347 45.4126C64.7768 45.3313 64.3596 44.8702 63.9953 44.4414C62.2987 42.4395 60.5351 40.3902 58.1714 39.1714C55.7532 37.9239 52.9389 37.6628 50.2126 37.3814C41.7153 36.5034 33.2672 35.2084 24.9089 33.5014Z" fill="#A79874"/>
<path d="M24.9618 33.6895C29.3548 32.9912 33.864 32.4674 38.0053 30.8045C40.0821 29.9706 41.997 28.8383 43.6673 27.3856C45.4273 25.855 46.9127 24.0667 48.5372 22.4089C55.2464 15.5609 64.8261 12.4657 74.3267 11.3842C80.3442 10.6994 86.4145 10.7299 92.4636 10.7605C92.3968 10.696 92.3281 10.6299 92.2612 10.5655C92.2471 18.6849 92.0483 26.8042 91.6663 34.9151C91.7526 34.8523 91.8371 34.7896 91.9233 34.7269C82.4703 32.0945 74.4358 39.1053 67.5102 44.1684C67.1001 44.4684 66.69 44.8176 66.2254 45.038C65.4245 45.4177 64.8156 45.0515 64.2964 44.4871C63.5396 43.6633 62.8514 42.7818 62.0735 41.975C60.6637 40.5122 59.0621 39.2392 57.1243 38.4899C55.0229 37.678 52.7454 37.4475 50.5137 37.217C47.8473 36.9407 45.1844 36.6322 42.5285 36.2779C36.6378 35.4914 30.7787 34.4998 24.9601 33.3149C24.7066 33.2624 24.5975 33.6387 24.8527 33.6912C30.05 34.7489 35.279 35.6541 40.5344 36.3949C43.0653 36.7525 45.6033 37.0729 48.1447 37.3543C50.5753 37.6238 53.064 37.7543 55.4365 38.3662C57.7843 38.9713 59.7063 40.1816 61.3906 41.8496C62.1298 42.5818 62.8127 43.3632 63.485 44.1514C63.9778 44.7278 64.5023 45.5058 65.3453 45.6092C66.2113 45.716 66.954 45.06 67.5894 44.5972C68.5151 43.9226 69.4286 43.231 70.3438 42.5428C72.2516 41.1054 74.1665 39.6697 76.2046 38.4069C80.7842 35.5727 86.374 33.5895 91.8142 35.1049C91.9462 35.1422 92.0641 35.0405 92.0712 34.9168C92.4531 26.8059 92.652 18.6866 92.666 10.5672C92.666 10.4621 92.5728 10.3723 92.4636 10.3723C82.2292 10.3197 71.699 10.2824 61.9556 13.7099C57.8424 15.1574 53.9281 17.1949 50.6035 19.9579C46.8793 23.0513 44.2551 27.2093 39.8516 29.5265C35.2632 31.9419 29.9304 32.5081 24.8545 33.3149C24.5975 33.3539 24.7066 33.7302 24.9618 33.6895Z" fill="#A79874"/>
<path d="M22.7936 27.2042C30.493 27.2042 36.7347 21.1929 36.7347 13.7776C36.7347 6.36236 30.493 0.351074 22.7936 0.351074C15.0942 0.351074 8.85254 6.36236 8.85254 13.7776C8.85254 21.1929 15.0942 27.2042 22.7936 27.2042Z" fill="#F29F38"/>
</svg>
