<?xml version="1.0" encoding="utf-8"?>
<!-- Generator: Adobe Illustrator 23.0.3, SVG Export Plug-In . SVG Version: 6.00 Build 0)  -->
<svg version="1.1" id="Layer_1" xmlns="http://www.w3.org/2000/svg" xmlns:xlink="http://www.w3.org/1999/xlink" x="0px" y="0px"
	 viewBox="0 0 607.95 607.95" style="enable-background:new 0 0 607.95 607.95;" xml:space="preserve">
<style type="text/css">
	.st0{fill:#FDF0D3;}
	.st1{fill:#A79874;}
	.st2{font-family:'PPWoodland-Bold';}
	.st3{font-size:101.3747px;}
	.st4{fill:#598AAB;}
	.st5{fill:#364C33;}
	.st6{fill:#F29F38;}
</style>
<rect class="st0" width="607.95" height="607.95"/>
<text transform="matrix(1 0 0 1 44.4107 552.7002)" class="st1 st2 st3">WalkMate</text>
<g>
	<path class="st4" d="M560.85,298.71c-0.59,46.82-1.76,98.83-2.35,145.65c-83.01-7.99-166.67-9.18-249.88-3.54
		c-3.09-20.43,11.52-40.15,29.64-50.07c18.13-9.92,39.25-12.34,59.67-15.47c20.42-3.13,41.6-7.56,57.73-20.47
		c12.58-10.08,20.96-24.47,32.69-35.53C507.01,301.66,535.57,294.18,560.85,298.71"/>
	<g>
		<path class="st4" d="M559.7,298.71c-0.62,48.55-1.73,97.1-2.35,145.65c0.38-0.38,0.77-0.77,1.15-1.15
			c-83.04-7.94-166.65-9.13-249.88-3.54c0.38,0.38,0.77,0.77,1.15,1.15c-2.67-20.53,11.22-39,28.41-48.7
			c19.25-10.86,41.88-12.79,63.28-16.23c18.74-3.01,38.22-7.42,53.6-19.17c16.12-12.31,25.38-31.42,42.07-43.12
			c18.2-12.76,41.6-17.47,63.41-13.77c1.45,0.25,2.07-1.97,0.61-2.22c-18.51-3.14-37.81-0.49-54.69,7.82
			c-8.97,4.42-16.84,10.47-23.62,17.79c-7.37,7.96-13.63,16.9-21.25,24.63c-33.54,34.03-86.27,20.06-125.24,42.66
			c-17.5,10.15-31.63,29.3-28.89,50.32c0.08,0.58,0.47,1.2,1.15,1.15c83.23-5.58,166.84-4.4,249.88,3.54
			c0.63,0.06,1.14-0.58,1.15-1.15c0.62-48.55,1.73-97.1,2.35-145.65C562.02,297.23,559.72,297.23,559.7,298.71L559.7,298.71z"/>
	</g>
</g>
<g>
	<path class="st5" d="M390.76,350.8c-29.12-31.72-78.1-41.38-121.06-44.19c-42.96-2.81-88.44-3.32-125.11-25.89
		c-14.52-8.93-26.9-20.95-41.09-30.4c-17.66-11.76-37.89-19.35-58.66-23.67c5.16,70.93,6.1,142.17,2.8,213.22
		c79.63,7.63,159.91,8.35,239.66,2.15c-6.99-27.71,8.39-59.34,34.49-70.97c18.51-8.25,39.77-6.87,59.49-11.54
		C385.87,358.41,391.43,355.49,390.76,350.8"/>
	<g>
		<path class="st5" d="M391.57,349.99c-30.72-32.94-78.89-41.67-121.88-44.53c-25.72-1.71-51.66-2.44-76.97-7.73
			c-12.32-2.58-24.47-6.24-35.86-11.66c-12.52-5.95-23.4-14.25-34.21-22.82c-11.19-8.88-22.54-17.27-35.43-23.56
			c-13.36-6.52-27.56-11.06-42.09-14.15c-0.68-0.14-1.51,0.32-1.46,1.11c5.12,70.95,6.06,142.16,2.8,213.22
			c-0.03,0.66,0.55,1.09,1.15,1.15c79.66,7.58,159.88,8.3,239.66,2.15c0.76-0.06,1.29-0.69,1.11-1.46
			c-6.16-25.81,6.39-54.59,29.65-67.52c14.02-7.79,30.47-8.72,46.04-10.66c7.62-0.95,28.14-1.22,27.82-12.74
			c-0.04-1.48-2.34-1.48-2.3,0c0.24,8.82-17.77,9.44-23.79,10.22c-7.03,0.91-14.09,1.56-21.09,2.63
			c-13.51,2.07-26.49,6.06-37.1,14.96c-18.18,15.25-26.96,40.58-21.44,63.71c0.37-0.49,0.74-0.97,1.11-1.46
			c-79.78,6.15-160,5.43-239.66-2.15c0.38,0.38,0.77,0.77,1.15,1.15c3.26-71.06,2.33-142.27-2.8-213.22
			c-0.49,0.37-0.97,0.74-1.46,1.11c27.58,5.86,51.67,17.49,73.74,34.92c9.69,7.65,19.26,15.52,30.07,21.57
			c10.2,5.71,21.2,9.92,32.46,12.99c46.58,12.7,95.8,6.64,142.58,18.41c24.79,6.24,48.9,17.01,66.58,35.96
			C390.96,352.7,392.58,351.07,391.57,349.99L391.57,349.99z"/>
	</g>
</g>
<g>
	<path class="st1" d="M181.3,268.35c36.39-6.04,73.33-10.01,101.8-33.46c13.54-11.16,24.07-25.48,36.54-37.83
		c30.9-30.57,72.89-47.95,115.56-56.2c42.67-8.25,86.47-8.05,129.94-7.82c-0.07,47.9-1.19,95.8-3.38,143.65
		c-25.42-7.68-53.29-0.66-76.66,11.95c-23.37,12.6-43.41,30.43-64.7,46.3c-2.76,2.06-5.93,4.19-9.34,3.68
		c-3.24-0.48-5.61-3.2-7.68-5.73c-9.64-11.81-19.66-23.9-33.09-31.09c-13.74-7.36-29.73-8.9-45.22-10.56
		C276.79,286.06,228.79,278.42,181.3,268.35"/>
	<g>
		<path class="st1" d="M181.6,269.46c24.96-4.12,50.58-7.21,74.11-17.02c11.8-4.92,22.68-11.6,32.17-20.17
			c10-9.03,18.44-19.58,27.67-29.36c38.12-40.4,92.55-58.66,146.53-65.04c34.19-4.04,68.68-3.86,103.05-3.68
			c-0.38-0.38-0.77-0.77-1.15-1.15c-0.08,47.9-1.21,95.8-3.38,143.65c0.49-0.37,0.97-0.74,1.46-1.11
			c-53.71-15.53-99.36,25.83-138.71,55.7c-2.33,1.77-4.66,3.83-7.3,5.13c-4.55,2.24-8.01,0.08-10.96-3.25
			c-4.3-4.86-8.21-10.06-12.63-14.82c-8.01-8.63-17.11-16.14-28.12-20.56c-11.94-4.79-24.88-6.15-37.56-7.51
			c-15.15-1.63-30.28-3.45-45.37-5.54c-33.47-4.64-66.76-10.49-99.82-17.48c-1.44-0.31-2.06,1.91-0.61,2.22
			c29.53,6.24,59.24,11.58,89.1,15.95c14.38,2.11,28.8,4,43.24,5.66c13.81,1.59,27.95,2.36,41.43,5.97
			c13.34,3.57,24.26,10.71,33.83,20.55c4.2,4.32,8.08,8.93,11.9,13.58c2.8,3.4,5.78,7.99,10.57,8.6c4.92,0.63,9.14-3.24,12.75-5.97
			c5.26-3.98,10.45-8.06,15.65-12.12c10.84-8.48,21.72-16.95,33.3-24.4c26.02-16.72,57.78-28.42,88.69-19.48
			c0.75,0.22,1.42-0.38,1.46-1.11c2.17-47.85,3.3-95.75,3.38-143.65c0-0.62-0.53-1.15-1.15-1.15
			c-58.15-0.31-117.98-0.53-173.34,19.69c-23.37,8.54-45.61,20.56-64.5,36.86c-21.16,18.25-36.07,42.78-61.09,56.45
			c-26.07,14.25-56.37,17.59-85.21,22.35C179.53,267.48,180.15,269.7,181.6,269.46L181.6,269.46z"/>
	</g>
</g>
<circle class="st6" cx="169.28" cy="151.99" r="79.21"/>
</svg>
